<svg preserveAspectRatio="none" width="100%" height="100%" overflow="visible" style="display: block;" viewBox="0 0 21.5 21.5" fill="none" xmlns="http://www.w3.org/2000/svg">
<path id="Vector" d="M8.25 8.75C8.25 9.02614 8.02614 9.25 7.75 9.25C7.47386 9.25 7.25 9.02614 7.25 8.75M8.25 8.75C8.25 8.47386 8.02614 8.25 7.75 8.25C7.47386 8.25 7.25 8.47386 7.25 8.75M8.25 8.75H7.25M14.25 8.75C14.25 9.02614 14.0261 9.25 13.75 9.25C13.4739 9.25 13.25 9.02614 13.25 8.75M14.25 8.75C14.25 8.47386 14.0261 8.25 13.75 8.25C13.4739 8.25 13.25 8.47386 13.25 8.75M14.25 8.75H13.25M14.7502 13.75C13.838 14.9644 12.3857 15.75 10.7499 15.75C9.11406 15.75 7.66172 14.9644 6.74951 13.75M10.75 20.75C5.22715 20.75 0.75 16.2728 0.75 10.75C0.75 5.22715 5.22715 0.75 10.75 0.75C16.2728 0.75 20.75 5.22715 20.75 10.75C20.75 16.2728 16.2728 20.75 10.75 20.75Z" stroke="var(--stroke-0, white)" stroke-width="1.5" stroke-linecap="round" stroke-linejoin="round"/>
</svg>
